<?xml version="1.0" encoding="UTF-8"?> <svg xmlns="http://www.w3.org/2000/svg" width="1110" height="269" viewBox="0 0 1110 269" fill="none"> <path d="M206.303 124.171L204.728 120.508C202.846 116.366 200.21 112.755 196.804 109.743C193.432 106.696 189.564 104.386 185.234 102.845C180.921 101.305 176.471 100.518 171.918 100.518C164.713 100.518 158.517 102.161 153.331 105.447C148.145 108.716 144.226 113.337 141.556 119.345C138.903 125.318 137.551 132.249 137.551 140.105C137.551 143.169 137.774 146.078 138.253 148.851C138.698 151.624 139.382 154.379 140.307 157.084C142.001 162.064 144.431 166.292 147.563 169.749C150.696 173.24 154.495 175.927 159.014 177.861C161.221 178.769 163.618 179.487 166.151 180.018C168.684 180.549 171.337 180.805 174.092 180.805C178.234 180.805 182.29 180.052 186.227 178.546C190.163 177.057 193.689 174.815 196.804 171.905C199.936 168.979 202.486 165.453 204.455 161.345L206.303 157.477H214.758L212.584 162.133C210.616 166.531 208.288 170.399 205.584 173.72C202.88 177.057 199.799 179.83 196.376 182.038C192.987 184.28 189.359 185.906 185.525 186.984C181.708 188.062 177.601 188.593 173.236 188.593C166.202 188.593 159.904 187.36 154.375 184.93C148.847 182.465 144.243 179.042 140.58 174.592C136.901 170.16 134.145 165.059 132.297 159.326C130.431 153.575 129.49 147.533 129.49 141.184C129.49 131.924 131.184 123.64 134.505 116.349C137.859 109.041 142.788 103.342 149.309 99.217C156.087 94.904 163.806 92.7303 172.466 92.7303C177.276 92.7303 182.461 93.8086 188.041 95.948C193.603 98.1045 198.67 101.168 203.205 105.156C207.741 109.144 210.993 113.731 212.927 118.934L214.758 124.171H206.303V124.171ZM88.0367 193.813L32.3096 47.9569C34.2094 45.7148 36.1776 43.5583 38.2143 41.4531L94.0613 187.532L134.59 82.3927H142.446L137.671 94.8355C139.981 92.8672 142.497 91.0873 145.184 89.5298C153.4 84.7717 162.488 82.3927 172.466 82.3927C178.371 82.3927 184.139 83.2827 189.821 85.0798C195.503 86.8769 200.809 89.4955 205.721 92.9357C210.599 96.3587 214.707 100.381 218.044 105.019C219.704 107.347 221.125 109.743 222.323 112.242C223.521 114.723 224.514 117.393 225.25 120.252L226.174 124.171H217.839L216.007 119.721C213.68 113.457 210.325 108.1 205.944 103.633C201.528 99.1828 196.479 95.7939 190.728 93.5005C184.977 91.19 178.884 90.0432 172.466 90.0432C165.637 90.0432 159.407 91.2755 153.793 93.723C148.18 96.1534 143.37 99.6449 139.365 104.163C135.36 108.716 132.245 114.056 130.003 120.286C128.891 123.538 128.018 126.858 127.436 130.178C126.837 133.482 126.546 136.99 126.546 140.67C126.546 147.14 127.522 153.404 129.49 159.445C131.475 165.504 134.402 170.913 138.287 175.671C142.189 180.429 146.982 184.211 152.698 187.001C155.642 188.422 158.723 189.466 161.975 190.184C165.192 190.92 168.615 191.28 172.192 191.28L172.535 191.074L172.706 191.006C193.312 191.006 207.809 181.028 216.247 161.071L217.839 157.477H226.43L223.863 164.032C221.245 170.656 217.376 176.629 212.276 181.901C207.142 187.189 201.151 191.297 194.305 194.241C187.425 197.185 180.254 198.674 172.723 198.674C164.456 198.674 156.994 197.287 150.353 194.48C143.713 191.691 137.996 187.634 133.204 182.38C128.429 177.125 124.783 170.844 122.267 163.604C120.23 157.768 119.015 151.418 118.639 144.589L99.7778 193.813H88.0367V193.813ZM46.3954 33.6486L94.3352 158.966L123.431 82.3927H131.544L94.0613 180.771L40.0285 39.6047C42.0995 37.5508 44.2218 35.5655 46.3954 33.6486V33.6486ZM386.218 169.971L358.149 203.996C354.726 207.882 351.423 211.784 348.291 215.909L348.068 216.182H345.21L345.261 215.412C345.57 211.048 345.689 206.683 345.689 202.319V170.04C345.689 164.905 345.501 159.719 345.261 154.585L345.227 153.832H354.538L354.504 154.585C354.264 159.702 354.161 164.922 354.161 170.04V198.075L382.47 164.049C385.688 160.199 388.837 156.416 391.832 152.394L392.037 152.103H395.05L395.033 152.856C394.827 158.538 394.69 164.272 394.69 169.954V201.275C394.69 205.383 394.742 209.679 395.033 213.769L395.084 214.539H385.825L385.876 213.769C386.167 209.713 386.218 205.434 386.218 201.361V169.971V169.971ZM448.518 182.893C454.662 185.307 458.599 190.681 458.599 197.647C458.599 209.131 449.818 215.241 438.882 215.241C435.407 215.241 432.173 214.779 428.886 213.615C427.055 212.982 425.036 211.921 423.187 211.493L422.639 211.373V202.114H423.735L423.957 202.336C427.278 205.742 433.285 207.83 438.009 207.83C444.684 207.83 449.887 204.168 449.887 197.202C449.887 190.304 443.948 186.676 437.581 186.676C435.305 186.676 433.08 186.778 430.838 187.104L429.999 187.223V179.06L430.906 179.299C432.652 179.761 435.921 179.624 437.752 179.624C443.708 179.624 448.655 175.859 448.655 169.612C448.655 163.69 443.742 160.472 438.18 160.472C434.004 160.472 429.468 161.859 426.131 164.392L424.967 165.248V155.954L425.549 155.834C430.598 154.841 432.823 153.061 438.625 153.061C448.706 153.061 457.383 158.453 457.383 169.27C457.383 175.26 453.84 180.497 448.518 182.893V182.893ZM515.969 214.539H471.811L471.897 230.628H464.418L463.203 206.94L464.058 207.06C465.701 207.265 467.618 207.231 469.33 207.214C470.665 204.356 471.931 201.463 473.198 198.588L492.47 151.846H495.259L514.36 198.588C515.541 201.498 516.807 204.407 518.211 207.214C520.008 207.231 521.993 207.265 523.756 207.043L524.629 206.94L522.763 230.628H515.181L515.969 214.539ZM526.426 184.143C526.426 166.719 540.444 152.805 557.867 152.805C575.29 152.805 589.29 166.719 589.29 184.143C589.29 201.6 575.341 215.583 557.867 215.583C540.392 215.583 526.426 201.6 526.426 184.143ZM608.1 191.263V198.331C608.1 203.397 608.117 208.72 608.442 213.769L608.494 214.539H599.32L599.371 213.769C599.696 208.737 599.628 203.397 599.628 198.331V168.311C599.628 163.81 599.662 159.086 599.371 154.602L599.32 153.832H613.371C624.77 153.832 633.602 160.661 633.602 172.556C633.602 184.126 624.308 191.263 613.183 191.263H608.1V191.263ZM640.55 184.143C640.55 166.719 654.568 152.805 671.991 152.805C689.397 152.805 703.415 166.719 703.415 184.143C703.415 201.6 689.466 215.583 671.991 215.583C654.516 215.583 640.55 201.6 640.55 184.143ZM738.313 180.138C744.97 182.791 749.027 188.901 749.027 196.26C749.027 208.036 739.066 214.539 728.009 214.539H713.239L713.324 213.752C713.804 208.84 713.752 203.278 713.752 198.331V171.169C713.752 165.949 713.923 159.771 713.41 154.619L713.324 153.832H726.965C736.053 153.832 744.525 158.744 744.525 168.568C744.525 173.069 742.249 177.827 738.313 180.138V180.138ZM766.878 174.25H774.22C786.304 174.25 794.81 182.243 794.81 194.361C794.81 206.256 785.91 214.539 774.135 214.539H757.91L757.978 213.752C758.457 208.84 758.406 203.278 758.406 198.331V170.125C758.406 165.042 758.406 159.685 758.064 154.602L758.012 153.832H767.272L767.22 154.602C766.878 159.617 766.878 164.922 766.878 169.954V174.25V174.25ZM814.801 188.199C807.852 185.341 804.104 179.505 804.104 171.82C804.104 159.685 813.5 153.832 824.864 153.832H839.19L839.121 154.619C838.625 159.497 838.693 165.093 838.693 170.006V198.793C838.693 203.62 838.659 208.96 839.121 213.752L839.19 214.539H829.691L829.794 213.735C830.375 209.165 830.221 203.432 830.221 198.793V189.876H826.165C825.036 189.876 823.906 189.876 822.776 189.757C817.317 197.664 812.935 206.649 807.304 214.248L807.082 214.539H796.539L797.6 213.341C804.001 206.153 809.067 196.26 814.801 188.199V188.199ZM878.23 179.795H881.516C889.012 171.477 895.584 163.639 901.541 154.174L901.746 153.832H913.145L911.947 155.064C909.328 157.734 906.795 161.225 904.433 164.169C899.333 170.502 894.061 176.646 888.619 182.688C894.438 189.551 900.154 196.5 905.751 203.551C908.352 206.803 911.022 210.346 913.932 213.324L915.147 214.539H902.704L902.499 214.197C896.303 204.339 888.516 195.353 880.985 186.505H878.23V198.331C878.23 203.483 878.315 208.652 878.486 213.803L878.503 214.539H869.364L869.415 213.769C869.74 208.72 869.758 203.414 869.758 198.331V170.04C869.758 164.974 869.74 159.651 869.415 154.602L869.364 153.832H878.503L878.486 154.585C878.315 159.719 878.23 164.905 878.23 170.04V179.795V179.795ZM913.367 184.143C913.367 166.719 927.384 152.805 944.808 152.805C962.231 152.805 976.231 166.719 976.231 184.143C976.231 201.6 962.282 215.583 944.808 215.583C927.333 215.583 913.367 201.6 913.367 184.143ZM1029.19 182.329C1034.35 188.576 1039.2 194.96 1043.92 201.549C1046.75 205.451 1049.67 209.833 1052.98 213.324L1054.12 214.539H1042.26L1042.06 214.231C1035.38 204.373 1029.29 195.593 1021.66 186.334H1018.47V198.331C1018.47 203.414 1018.49 208.72 1018.81 213.769L1018.87 214.539H1009.69L1009.74 213.769C1010.07 208.737 1010 203.38 1010 198.331V186.334H1006.99C999.902 194.994 992.354 204.664 986.518 214.197L986.312 214.539H974.588L975.752 213.324C979.209 209.696 982.564 204.801 985.542 200.745C990.112 194.549 994.699 188.387 999.542 182.414C994.767 176.612 990.112 170.724 985.508 164.768C983.06 161.619 980.407 157.922 977.652 155.047L976.505 153.832H987.596L987.801 154.174C993.62 163.382 1000.19 171.666 1007.23 179.967H1010V170.04C1010 165.008 1010.09 159.617 1009.74 154.602L1009.69 153.832H1018.87L1018.81 154.602C1018.47 159.651 1018.47 164.974 1018.47 170.04V179.967H1021.5C1028.89 171.477 1034.83 163.433 1041.1 154.157L1041.32 153.832H1052.19L1051.08 155.047C1043.46 163.279 1036.49 173.531 1029.19 182.329ZM1099.34 169.971L1071.27 203.996C1067.85 207.882 1064.55 211.784 1061.41 215.909L1061.19 216.182H1058.33L1058.38 215.412C1058.69 211.048 1058.81 206.683 1058.81 202.319V170.04C1058.81 164.905 1058.62 159.719 1058.38 154.585L1058.35 153.832H1067.66L1067.63 154.585C1067.39 159.702 1067.28 164.922 1067.28 170.04V198.075L1095.59 164.049C1098.81 160.199 1101.96 156.416 1104.95 152.394L1105.16 152.103H1108.17L1108.16 152.856C1107.95 158.538 1107.81 164.272 1107.81 169.954V201.275C1107.81 205.383 1107.86 209.679 1108.16 213.769L1108.21 214.539H1098.95L1099 213.769C1099.29 209.713 1099.34 205.434 1099.34 201.361V169.971V169.971ZM508.643 207.214L493.548 167.627L478.195 207.214H508.643ZM535.069 184.143C535.069 196.928 544.791 208.087 557.867 208.087C570.926 208.087 580.664 196.928 580.664 184.143C580.664 171.392 570.874 160.284 557.867 160.284C544.842 160.284 535.069 171.392 535.069 184.143ZM608.1 160.729V184.468H612.67C619.345 184.468 625.061 179.214 625.061 172.47C625.061 165.282 619.636 160.729 612.584 160.729H608.1ZM649.194 184.143C649.194 196.928 658.915 208.087 671.991 208.087C685.05 208.087 694.789 196.928 694.789 184.143C694.789 171.392 684.999 160.284 671.991 160.284C658.966 160.284 649.194 171.392 649.194 184.143ZM722.224 184.519V207.385H727.496C734.325 207.385 740.486 203.397 740.486 196.089C740.486 189.038 735.335 184.519 728.437 184.519H722.224V184.519ZM722.224 160.729V177.896H728.18C732.956 177.896 736.053 173.959 736.053 169.355C736.053 163.878 731.535 160.729 726.366 160.729H722.224ZM766.878 181.575V207.214H773.176C780.331 207.214 785.996 201.583 785.996 194.446C785.996 186.967 780.707 181.575 773.176 181.575H766.878V181.575ZM830.221 183.167V160.9H824.693C818.07 160.9 812.661 164.957 812.661 171.82C812.661 178.529 817.847 183.167 824.436 183.167H830.221V183.167ZM922.01 184.143C922.01 196.928 931.732 208.087 944.808 208.087C957.867 208.087 967.605 196.928 967.605 184.143C967.605 171.392 957.815 160.284 944.808 160.284C931.783 160.284 922.01 171.392 922.01 184.143ZM392.876 119.653H349.523L349.575 118.917C350.02 113.56 350.054 107.672 350.054 102.281V71.8155C350.054 66.3386 349.951 60.6564 349.575 55.1795L349.54 54.4607H359.399L359.347 55.1795C358.988 60.6222 358.971 66.3729 358.971 71.8155V112.053H387.622V72.0038C387.622 66.5611 387.622 60.605 387.142 55.1966L387.091 54.4607H397.086L397.018 55.2137C396.47 60.5366 396.539 66.7152 396.539 72.1065V111.951H402.067L401.126 125.9L392.414 136.956L392.876 119.653ZM420.432 62.0598V81.0235H427.141C431.916 81.0235 436.896 81.0406 441.672 80.7325L442.39 80.6983V89.0334L441.672 88.9821C436.896 88.6911 431.916 88.7082 427.141 88.7082H420.432V111.951H427.979C433.131 111.951 438.591 112.019 443.725 111.677L444.444 111.626V119.978L443.725 119.926C438.591 119.584 433.131 119.653 427.979 119.653H411.104L411.121 118.951C411.326 113.406 411.497 107.826 411.497 102.281V71.7299C411.497 66.3044 411.48 60.605 411.138 55.1795L411.087 54.4607H427.226C432.412 54.4607 437.804 54.4264 442.972 54.0841L443.708 54.0499V62.5048L442.955 62.4364C437.958 61.94 432.275 62.0598 427.226 62.0598H420.432ZM463.562 80.8352H497.159V71.8155C497.159 66.3729 497.279 60.6222 496.885 55.1795L496.834 54.4607H506.487L506.47 55.1795C506.213 60.6906 506.093 66.2873 506.093 71.8155V105.55C506.093 109.948 506.145 114.535 506.453 118.917L506.521 119.653H496.834L496.885 118.917C497.193 114.535 497.159 109.863 497.159 105.464V88.4344H463.562V105.55C463.562 109.948 463.63 114.535 463.938 118.917L463.99 119.653H454.303L454.354 118.917C454.679 114.535 454.645 109.863 454.645 105.464V71.8155C454.645 66.4413 454.765 60.5366 454.354 55.1966L454.303 54.4607H463.99L463.938 55.1966C463.545 60.5879 463.562 66.4071 463.562 71.8155V80.8352V80.8352ZM545.561 62.0598C545.475 65.8423 545.492 69.6248 545.492 73.4072V102.281C545.492 107.586 545.356 113.645 545.852 118.9L545.938 119.653H536.148L536.182 118.934C536.541 113.508 536.473 107.74 536.473 102.281V73.4072C536.473 69.6419 536.404 65.8252 536.216 62.0598H530.414C525.177 62.0598 519.717 62.0941 514.48 62.4364L513.761 62.4877V54.1355L514.48 54.1868C519.683 54.512 525.194 54.4607 530.414 54.4607H551.449C556.737 54.4607 562.3 54.5291 567.571 54.1868L568.29 54.1355V62.4877L567.571 62.4364C562.265 62.0941 556.754 62.0598 551.449 62.0598H545.561V62.0598ZM584.327 94.5788V102.281C584.327 107.757 584.344 113.474 584.703 118.934L584.755 119.653H575.068L575.119 118.917C575.478 113.508 575.393 107.723 575.393 102.281V69.95C575.393 65.1063 575.444 60.0231 575.119 55.1795L575.068 54.4607H590.095C602.332 54.4607 611.797 61.7689 611.797 74.5197C611.797 86.9283 601.836 94.5788 589.907 94.5788H584.327V94.5788ZM667.764 82.7179C675.003 85.5077 679.419 92.1142 679.419 100.056C679.419 112.687 668.739 119.653 656.878 119.653H641.081L641.15 118.9C641.663 113.611 641.612 107.621 641.612 102.281V73.0307C641.612 67.3998 641.8 60.7591 641.252 55.2137L641.167 54.4607H655.749C665.47 54.4607 674.558 59.6979 674.558 70.2409C674.558 75.1016 672.077 80.2876 667.764 82.7179V82.7179ZM733.349 71.4732L702.953 108.322C699.273 112.516 695.713 116.709 692.324 121.159L692.136 121.415H689.192L689.243 120.697C689.569 115.99 689.705 111.283 689.705 106.577V71.8155C689.705 66.2873 689.5 60.6906 689.243 55.1795L689.209 54.4607H699.05L699.016 55.1795C698.742 60.6906 698.64 66.3044 698.64 71.8155V102.264L729.293 65.4144C732.75 61.2725 736.156 57.1991 739.374 52.869L739.579 52.5951H742.677L742.66 53.2968C742.42 59.4241 742.283 65.6027 742.283 71.7299V105.464C742.283 109.88 742.335 114.501 742.643 118.917L742.694 119.653H732.921L732.973 118.917C733.298 114.535 733.349 109.948 733.349 105.55V71.4732V71.4732ZM781.563 62.0598C781.477 65.8423 781.494 69.6248 781.494 73.4072V102.281C781.494 107.586 781.357 113.645 781.871 118.9L781.939 119.653H772.149L772.184 118.917C772.543 113.508 772.475 107.723 772.475 102.281V73.4072C772.475 69.6419 772.406 65.8252 772.218 62.0598H766.416C761.179 62.0598 755.719 62.0941 750.482 62.4364L749.763 62.4877V54.1355L750.482 54.1868C755.685 54.512 761.196 54.4607 766.416 54.4607H787.45C792.739 54.4607 798.302 54.5291 803.573 54.1868L804.292 54.1355V62.4877L803.573 62.4364C798.267 62.0941 792.756 62.0598 787.45 62.0598H781.563V62.0598ZM855.038 71.4732L824.642 108.322C820.962 112.516 817.402 116.709 814.03 121.159L813.825 121.415H810.881L810.933 120.697C811.258 115.99 811.395 111.283 811.395 106.577V71.8155C811.395 66.2873 811.189 60.6906 810.933 55.1795L810.898 54.4607H820.74L820.705 55.1795C820.449 60.6906 820.329 66.3044 820.329 71.8155V102.264L850.999 65.4144C854.439 61.2725 857.845 57.1991 861.063 52.869L861.268 52.5951H864.366L864.349 53.2968C864.127 59.4241 863.973 65.6027 863.973 71.7299V105.464C863.973 109.88 864.024 114.501 864.349 118.917L864.401 119.653H854.628L854.679 118.917C854.987 114.535 855.038 109.948 855.038 105.55V71.4732V71.4732ZM901.267 70.395C895.773 83.1116 890.467 95.9309 885.281 108.784C883.912 112.207 882.526 115.665 881.379 119.173L881.225 119.653H870.648L871.264 118.626C873.882 114.295 876.039 109.212 877.956 104.54L900.377 52.3213H902.961L925.365 104.523C927.436 109.178 929.627 114.296 932.331 118.609L932.981 119.653H921.257L921.103 119.173C919.888 115.271 918.296 111.369 916.824 107.586C911.724 95.1436 906.418 82.8035 901.267 70.395ZM983.095 71.4732L952.698 108.322C949.018 112.516 945.458 116.709 942.069 121.159L941.864 121.415H938.937L938.989 120.697C939.314 115.99 939.451 111.283 939.451 106.577V71.8155C939.451 66.2873 939.228 60.6906 938.972 55.1795L938.954 54.4607H948.779L948.744 55.1795C948.488 60.6906 948.385 66.3044 948.385 71.8155V102.264L979.038 65.4144C982.495 61.2725 985.901 57.1991 989.119 52.869L989.324 52.5951H992.422L992.388 53.2968C992.166 59.4241 992.029 65.6027 992.029 71.7299V105.464C992.029 109.88 992.08 114.501 992.388 118.917L992.439 119.653H982.667L982.718 118.917C983.026 114.535 983.095 109.948 983.095 105.55V71.4732V71.4732ZM1015.63 62.2481V102.281C1015.63 107.826 1015.73 113.406 1015.9 118.951L1015.94 119.653H1006.29L1006.32 118.934C1006.68 113.474 1006.7 107.757 1006.7 102.281V71.8155C1006.7 66.3558 1006.68 60.6222 1006.32 55.1795L1006.27 54.4607H1026.82C1031.43 54.4607 1036 54.2895 1040.6 53.9986L1041.32 53.9472V62.676L1040.6 62.6246C1036.03 62.3337 1031.39 62.2481 1026.82 62.2481H1015.63V62.2481ZM1041.99 87.0138C1041.99 68.2898 1057.05 53.3482 1075.74 53.3482C1094.45 53.3482 1109.51 68.2898 1109.51 87.0138C1109.51 105.755 1094.51 120.765 1075.74 120.765C1056.98 120.765 1041.99 105.755 1041.99 87.0138V87.0138ZM584.327 61.6833V87.4417H589.342C596.581 87.4417 602.777 81.7423 602.777 74.4341C602.777 66.6467 596.89 61.6833 589.256 61.6833H584.327V61.6833ZM650.546 87.3219V112.139H656.314C663.724 112.139 670.399 107.792 670.399 99.8674C670.399 92.234 664.82 87.3219 657.341 87.3219H650.546ZM650.546 61.6833V80.356H657.067C662.27 80.356 665.641 76.0943 665.641 71.0796C665.641 65.1235 660.729 61.6833 655.098 61.6833H650.546V61.6833ZM1051.09 87.0138C1051.09 100.826 1061.62 112.892 1075.74 112.892C1089.88 112.892 1100.39 100.826 1100.39 87.0138C1100.39 73.219 1089.83 61.2212 1075.74 61.2212C1061.69 61.2212 1051.09 73.219 1051.09 87.0138V87.0138Z" fill="black"></path> <path fill-rule="evenodd" clip-rule="evenodd" d="M136.148 0C211.078 0 271.82 60.2114 271.82 134.491C271.82 208.789 211.078 269 136.148 269C61.2343 269 0.492371 208.789 0.492371 134.491C0.492371 103.41 11.138 74.7764 29.0063 51.9961L35.647 69.6761C23.3925 88.3146 16.2555 110.581 16.2555 134.491C16.2555 200.145 69.9288 253.374 136.148 253.374C202.366 253.374 256.04 200.145 256.04 134.491C256.04 68.8546 202.366 15.6262 136.148 15.6262C105.768 15.6262 78.0243 26.8538 56.887 45.3211L50.8625 29.9003C74.1734 11.2105 103.834 0 136.148 0V0Z" fill="#B49880"></path> </svg> 